<?xml version="1.0" standalone="no"?>
<!DOCTYPE svg PUBLIC "-//W3C//DTD SVG 20010904//EN"
 "http://www.w3.org/TR/2001/REC-SVG-20010904/DTD/svg10.dtd">
<svg version="1.0" xmlns="http://www.w3.org/2000/svg"
 width="512.000000pt" height="512.000000pt" viewBox="0 0 512.000000 512.000000"
 preserveAspectRatio="xMidYMid meet">

<g transform="translate(0.000000,512.000000) scale(0.100000,-0.100000)"
fill="#000000" stroke="none">
<path d="M2341 5109 c-110 -12 -292 -53 -400 -91 -104 -36 -284 -124 -317
-155 -42 -39 -24 -113 31 -127 19 -5 48 6 118 43 159 86 312 137 517 172 98
17 430 18 535 1 530 -86 902 -366 1046 -788 43 -126 58 -234 66 -451 5 -170 8
-195 25 -210 29 -26 77 -21 105 11 22 25 23 35 23 155 0 167 -15 311 -45 437
-112 472 -496 829 -1030 960 -199 48 -459 65 -674 43z"/>
<path d="M1368 4652 c-187 -199 -299 -456 -328 -751 -13 -135 -13 -1145 0
-1231 29 -185 171 -334 356 -373 l54 -11 0 -113 c0 -64 -4 -113 -9 -113 -6 0
-72 22 -148 49 -250 88 -294 119 -374 275 -71 136 -168 210 -307 236 -217 39
-433 -129 -457 -357 -4 -32 -2 -76 3 -98 8 -39 7 -41 -49 -102 -129 -139 -144
-345 -35 -497 76 -107 174 -159 313 -164 87 -4 95 -2 195 38 132 53 181 62
255 49 54 -10 589 -194 606 -209 9 -8 -326 -125 -402 -141 -74 -15 -134 -5
-248 42 -71 30 -117 42 -168 46 -164 13 -313 -74 -388 -226 -30 -61 -32 -72
-32 -171 0 -95 3 -110 28 -162 16 -32 50 -82 76 -110 l48 -53 -5 -76 c-20
-313 300 -523 582 -382 69 35 134 105 186 204 64 119 114 166 230 215 72 30
98 46 108 66 16 35 6 75 -25 95 -32 21 -83 9 -199 -47 -99 -48 -181 -130 -238
-240 -21 -41 -53 -90 -70 -108 -62 -67 -148 -93 -235 -72 -144 34 -222 178
-176 325 23 72 15 94 -50 137 -168 112 -147 359 36 438 70 30 140 24 236 -18
195 -87 257 -84 581 28 131 45 266 91 300 103 l64 22 131 -47 c73 -26 175 -65
228 -87 53 -23 139 -52 190 -65 52 -13 87 -26 79 -30 -8 -3 -163 -58 -345
-121 -181 -64 -337 -123 -347 -132 -43 -38 -8 -123 50 -123 15 0 220 68 455
150 235 83 432 150 437 150 24 0 1192 -415 1257 -446 83 -40 124 -83 177 -184
52 -97 105 -160 169 -198 281 -168 626 41 605 366 l-5 77 48 53 c26 28 60 78
76 110 25 52 28 67 28 162 0 99 -2 110 -33 172 -41 84 -128 167 -209 199 -47
19 -77 23 -153 23 -89 0 -101 -3 -193 -42 -114 -48 -173 -59 -248 -43 -75 15
-579 193 -579 204 0 5 15 27 34 49 47 54 101 160 120 234 10 37 16 104 16 165
l0 104 172 60 c239 83 313 121 379 193 30 32 72 92 93 132 22 41 57 93 78 116
129 140 360 83 414 -103 15 -50 15 -65 4 -113 -28 -123 -28 -123 33 -168 71
-53 94 -83 113 -150 28 -97 1 -189 -76 -254 -81 -70 -166 -76 -307 -19 -200
80 -257 78 -548 -21 -247 -84 -265 -94 -265 -147 0 -31 39 -71 68 -71 15 0
121 32 236 71 268 92 288 93 460 25 117 -47 122 -48 210 -44 137 5 236 57 312
164 109 152 94 358 -35 497 -56 61 -57 63 -49 102 5 22 7 66 3 98 -24 228
-240 396 -457 357 -139 -26 -236 -100 -307 -236 -80 -156 -124 -187 -374 -275
-76 -27 -142 -49 -148 -49 -5 0 -9 49 -9 113 l0 113 54 11 c135 28 253 119
311 236 49 101 56 169 53 485 -3 260 -4 272 -24 292 -26 26 -78 29 -103 6 -18
-16 -19 -38 -23 -329 -3 -311 -3 -312 -29 -367 -56 -119 -126 -164 -280 -181
-182 -20 -266 -54 -343 -139 -68 -75 -80 -111 -84 -250 -2 -69 -8 -130 -14
-137 -11 -14 -159 -73 -183 -73 -12 0 -15 14 -15 73 0 64 -3 76 -23 95 -31 29
-72 28 -102 -3 -23 -22 -25 -32 -25 -113 l0 -89 -67 -6 c-38 -4 -83 -7 -100
-7 l-33 0 0 60 c0 108 -36 153 -106 136 -34 -9 -54 -59 -54 -136 l0 -60 -32 0
c-18 0 -63 3 -100 7 l-68 6 0 89 c0 81 -2 91 -25 113 -31 32 -74 33 -103 2
-18 -19 -22 -35 -22 -95 0 -54 -3 -72 -13 -72 -18 0 -112 33 -159 56 l-38 18
0 112 c0 134 -19 197 -80 267 -80 91 -163 125 -349 146 -154 17 -224 62 -280
181 l-26 55 -3 545 c-4 587 2 706 43 865 42 166 165 387 269 484 19 18 26 35
26 61 0 46 -25 70 -72 70 -29 0 -43 -8 -80 -48z m-713 -2201 c52 -23 103 -81
151 -171 21 -41 63 -100 93 -132 66 -72 140 -110 379 -193 l172 -60 0 -104 c0
-143 32 -255 102 -354 11 -16 19 -30 17 -31 -2 -2 -143 45 -313 105 -169 60
-347 117 -394 126 -79 16 -92 16 -162 1 -42 -9 -110 -31 -151 -49 -129 -57
-233 -49 -316 24 -89 79 -107 218 -40 318 12 18 48 53 81 78 65 49 64 48 36
171 -11 48 -11 63 4 113 44 151 196 221 341 158z m1028 -218 c20 -14 47 -42
60 -62 21 -34 22 -50 27 -257 5 -200 7 -224 24 -243 40 -44 126 -14 126 44 0
14 3 25 6 25 4 0 51 -14 105 -31 l99 -32 0 -70 c0 -59 4 -75 22 -94 29 -31 72
-30 103 2 21 20 25 34 25 81 l0 57 68 -6 c37 -4 82 -7 100 -7 l32 0 0 -55 c0
-103 37 -148 106 -131 33 9 54 59 54 131 l0 55 33 0 c17 0 62 3 100 7 l67 6 0
-57 c0 -47 4 -61 25 -81 30 -31 71 -32 102 -3 20 19 23 31 23 94 l0 73 43 12
c23 6 68 19 99 30 71 24 68 24 68 -6 0 -62 90 -89 129 -39 20 25 21 40 21 238
0 201 1 213 23 251 20 36 112 105 140 105 4 0 7 -139 5 -308 l-3 -308 -39 -78
c-105 -214 -405 -396 -741 -452 -461 -76 -998 172 -1116 514 -17 49 -19 86
-19 344 l0 289 23 -6 c12 -4 39 -18 60 -32z m1988 -1119 c167 -58 332 -112
368 -121 114 -26 204 -12 376 61 77 33 143 34 210 2 179 -83 195 -323 29 -433
-65 -43 -73 -66 -50 -138 20 -66 20 -109 -1 -170 -46 -136 -212 -202 -341
-136 -52 27 -93 74 -138 160 -59 112 -139 194 -238 240 -45 22 -309 119 -588
217 l-508 177 109 28 c59 15 149 46 199 67 87 38 235 123 247 143 4 5 10 9 15
9 5 0 145 -48 311 -106z"/>
<path d="M1589 3516 c-99 -26 -191 -104 -232 -195 -32 -70 -36 -209 -9 -298
65 -213 244 -334 496 -334 208 -1 379 77 466 213 68 104 94 228 78 372 -9 85
-48 199 -80 233 l-21 23 -326 -1 c-225 0 -340 -4 -372 -13z"/>
<path d="M2807 3501 c-55 -66 -92 -246 -76 -373 12 -96 32 -154 78 -225 87
-134 259 -214 461 -214 257 0 436 119 502 334 29 97 23 229 -15 308 -33 69
-99 132 -175 167 l-57 27 -346 3 -346 3 -26 -30z"/>
<path d="M2418 2827 c-120 -110 -152 -147 -187 -214 -53 -104 -5 -243 104
-301 41 -22 150 -22 193 0 30 15 34 15 65 0 42 -22 151 -22 192 0 77 41 124
120 125 206 0 94 -49 166 -217 317 -81 74 -111 95 -133 95 -23 0 -54 -23 -142
-103z"/>
</g>
</svg>
