<?xml version="1.0" encoding="UTF-8"?>
<svg version="1.1" xmlns="http://www.w3.org/2000/svg" width="512" height="512">
<path d="M0 0 C2.33294775 -0.04241723 4.66702567 -0.04092937 7 0 C8.55849027 1.55849027 8.46636902 3.35757662 8.82568359 5.50634766 C9.82809944 10.69779566 11.54483127 15.13255874 13.7890625 19.8984375 C14.16416458 20.71795395 14.53926666 21.5374704 14.92573547 22.38182068 C15.73057823 24.13710926 16.54019985 25.89021331 17.35421753 27.64126587 C18.65267111 30.43452667 19.93846441 33.23330899 21.22094727 36.03393555 C22.54053617 38.9154493 23.86075335 41.79664925 25.18476868 44.6761322 C29.17526635 53.3563401 33.07129763 62.07638039 36.9375 70.8125 C37.58149551 72.26503109 38.22562105 73.71750453 38.86987305 75.16992188 C40.20163118 78.17273904 41.53268858 81.17586545 42.86328125 84.17919922 C46.88158413 93.24732244 50.90987966 102.3110124 54.9375 111.375 C55.57399979 112.8076268 55.57399979 112.8076268 56.22335815 114.26919556 C61.96349899 127.18788852 67.72149768 140.09842355 73.5 153 C79.89662112 167.28207305 86.26809696 181.57520367 92.625 195.875 C93.25523071 197.29208252 93.25523071 197.29208252 93.89819336 198.73779297 C95.11236328 201.46818178 96.32577702 204.19890558 97.5390625 206.9296875 C97.92165222 207.78963318 98.30424194 208.64957886 98.69842529 209.5355835 C100.51055145 213.61519059 102.3074653 217.70017032 104.06933594 221.80175781 C104.39026215 222.54628204 104.71118835 223.29080627 105.0418396 224.05789185 C105.63640407 225.44058936 106.22702792 226.82499089 106.81289673 228.21139526 C107.97936738 230.92183676 108.89203532 232.89203532 111 235 C111.78632813 235.27199219 112.57265625 235.54398438 113.3828125 235.82421875 C116.62956271 237.2828334 117.84843027 238.91180899 119.875 241.8125 C120.49117188 242.66457031 121.10734375 243.51664063 121.7421875 244.39453125 C123 247 123 247 122.4296875 249.296875 C121.73544062 253.66431898 124.15578519 256.69020827 126.25 260.4375 C130.4003953 268.22178279 132.77030652 275.20839834 134 284 C134.55171875 283.84144531 135.1034375 283.68289063 135.671875 283.51953125 C142.36496322 282.02593942 149.24949114 282.15461869 155.28515625 285.5859375 C157.8713986 287.71855648 159.35391138 290.24755607 160.89453125 293.1953125 C162.02040504 295.3167722 162.02040504 295.3167722 165 297 C165 297.99 165 298.98 165 300 C164.05125 300.37125 163.1025 300.7425 162.125 301.125 C158.74446192 302.73995905 158.74446192 302.73995905 157.625 306.1875 C157.315625 307.5796875 157.315625 307.5796875 157 309 C157.66 309.2475 158.32 309.495 159 309.75 C161.29985681 310.70827367 163.42470597 311.72505209 165.625 312.875 C168.64863899 314.43432584 171.55601115 315.4731754 174.8125 316.4375 C184.12179535 319.69249838 192.10557664 326.22921786 200 332 C200.80937012 332.57081299 201.61874023 333.14162598 202.45263672 333.72973633 C207.50640696 337.42176472 210.32595109 340.33665132 212.875 346.0625 C213.40867187 347.22910156 213.94234375 348.39570313 214.4921875 349.59765625 C214.98976563 350.72042969 215.48734375 351.84320313 216 353 C218.12622685 357.57329101 219.83639587 360.07422413 224 363 C224 362.01 224 361.02 224 360 C226.34677981 358.81603901 228.70061349 357.65311707 231.0625 356.5 C231.71927734 356.16613281 232.37605469 355.83226562 233.05273438 355.48828125 C237.52608363 353.32873333 240.93123202 352.4925043 246 353 C251.59964012 355.91181286 255.17308686 359.92746426 258.375 365.3125 C259.31837651 369.36901899 259.1200455 372.98768512 258 377 C256.54225363 379.31404493 254.90840057 380.99850672 253 383 C252.29664541 384.31434948 251.62121166 385.64489178 251 387 C250.40832031 386.80921875 249.81664062 386.6184375 249.20703125 386.421875 C246.76938132 385.73790145 244.5266984 385.19600021 242 385 C239.22712063 386.78468339 239.22712063 386.78468339 237 389 C234.1875 389.25 234.1875 389.25 232 389 C232.495 389.66 232.99 390.32 233.5 391 C235.83581084 395.67162169 235.68726421 399.5576882 234.30859375 404.45703125 C232.73786798 408.73545166 230.96830741 412.23600035 228.0625 415.75 C222.01543721 423.36652947 219.19696207 432.96497392 220.1171875 442.59765625 C220 445 220 445 218.60229492 447.2565918 C216.84261284 450.26947425 216.0689093 452.9114909 215.24609375 456.296875 C214.80040039 458.10671875 214.80040039 458.10671875 214.34570312 459.953125 C214.04599609 461.20609375 213.74628906 462.4590625 213.4375 463.75 C213.13392578 464.9875 212.83035156 466.225 212.51757812 467.5 C211.24292116 472.72081718 210.00073855 477.9417056 208.88671875 483.19921875 C208.0622138 486.73333027 207.08452415 489.06271596 205 492 C210.8587585 492.31386206 216.40813123 491.78790128 222.1875 490.8125 C223.20263672 490.66107544 223.20263672 490.66107544 224.23828125 490.5065918 C229.40668419 489.56728523 232.21179484 487.54091954 236 484 C245.09800658 476.39181008 245.09800658 476.39181008 250.6875 476.6875 C258.51036053 478.37855773 262.74370541 484.75421927 267.30859375 490.8203125 C270.28991069 494.66228676 273.35163393 498.11831583 277.6875 500.4375 C281.00715998 502.6805135 281.73719356 505.27804416 283 509 C283 509.99 283 510.98 283 512 C146.71 512 10.42 512 -130 512 C-126 507 -126 507 -123.921875 506.28515625 C-122.84679687 506.17494141 -122.84679687 506.17494141 -121.75 506.0625 C-116.40055783 505.16649061 -113.03082859 502.49265257 -109 499 C-111.37291226 493.87618945 -113.72954277 489.14146302 -117.3125 484.75 C-119.18693408 482.30636604 -120.03352626 480.88824581 -120.9375 477.875 C-119.37754569 473.09114012 -115.17007116 471.46828833 -111 469 C-108.35710126 467.01782594 -106.02289845 465.02289845 -103.6875 462.6875 C-101.44556452 460.44556452 -99.17348408 458.30130524 -96.8125 456.1875 C-96.13832031 455.58292969 -95.46414062 454.97835938 -94.76953125 454.35546875 C-93 453 -93 453 -91 453 C-90.75894531 452.43152344 -90.51789063 451.86304688 -90.26953125 451.27734375 C-88.75031912 448.55211092 -86.92581019 446.73309661 -84.6875 444.5625 C-82.26359409 442.20773879 -79.89291683 439.88164492 -77.625 437.375 C-72.60765215 432.8354948 -66.59580524 429.49757995 -60.75 426.125 C-53.19920521 420.29029494 -49.01331976 411.75794135 -44.63964844 403.47216797 C-42.1578108 398.82598363 -39.51893892 394.92593363 -36 391 C-36.33 390.46375 -36.66 389.9275 -37 389.375 C-38.87662936 384.91800528 -38.0592549 380.59010459 -37 376 C-36.9175 375.195625 -36.835 374.39125 -36.75 373.5625 C-34.787088 366.855884 -28.14155459 362.33403408 -23 358 C-22.05125 357.154375 -21.1025 356.30875 -20.125 355.4375 C-16.6647448 352.73850094 -13.05919458 350.74288446 -9.171875 348.72265625 C-4.67827573 345.15848849 -4.51983424 338.93330733 -3.5625 333.5625 C-3.30082355 332.15363798 -3.03910368 330.74478402 -2.77734375 329.3359375 C-2.25462005 326.47097223 -1.77322241 323.60271418 -1.31640625 320.7265625 C-1.08612234 319.38017671 -0.85566054 318.03382132 -0.625 316.6875 C-0.43164062 315.47449219 -0.23828125 314.26148438 -0.0390625 313.01171875 C1 310 1 310 3.46484375 308.125 C8.59566733 305.84814762 13.26038822 305.92978442 18.79296875 306.0625 C21.04339196 306.15401886 21.04339196 306.15401886 23 305 C22.59872233 300.58594558 20.79660605 298.040988 18.15625 294.6484375 C15.12627536 290.32867635 15.44956875 285.04037761 16 280 C18.02923787 275.6168462 20.59939834 272.92590258 24.9375 270.69140625 C28.92702167 269.35400978 32.86593272 269.4003486 37 270 C39.75 271.375 39.75 271.375 42 273 C43.98451771 273.71143088 45.98202112 274.38991336 48 275 C48.12589928 281.54676259 48.12589928 281.54676259 47.375 284.25 C47.189375 285.11625 47.189375 285.11625 47 286 C47.99 287.485 47.99 287.485 49 289 C52.03813509 285.60443725 54.48913006 282.27218004 56.75 278.3125 C59.58594396 273.43730768 62.95132706 269.27311829 66.65625 265.03125 C73.1252002 256.66474108 76.95916363 247.63524489 80.56640625 237.77148438 C82.82910272 231.91199262 84.75204979 228.53633427 90 225 C89.44133224 220.63065098 87.86849026 217.91663224 85.38671875 214.30859375 C85.02105301 213.77065186 84.65538727 213.23270996 84.27864075 212.6784668 C83.49481352 211.5258654 82.70765585 210.37552307 81.91748047 209.2272644 C79.83468881 206.19656069 77.78220584 203.14553014 75.73046875 200.09375 C75.32106049 199.48534775 74.91165222 198.8769455 74.48983765 198.25010681 C68.98517658 190.03749984 63.9216103 181.57241674 59 173 C58.57847656 172.26587891 58.15695313 171.53175781 57.72265625 170.77539062 C50.09299904 157.4056642 42.88395064 143.76790127 36 130 C10.16779507 129.05323656 10.16779507 129.05323656 -15 134 C-15.6501709 134.21430664 -16.3003418 134.42861328 -16.97021484 134.64941406 C-29.85725561 139.01822581 -40.70452354 146.09449754 -51.33642578 154.41552734 C-66.1868684 165.98385579 -81.80503292 169.55365285 -100.44702148 170.28442383 C-121.354715 171.15391764 -135.49252248 180.78479767 -150 195 C-152.71571701 192.28428299 -152.96340866 189.3191194 -153.75 185.6875 C-155.31980645 178.87113373 -157.55922602 173.02370363 -160.73046875 166.76953125 C-164.21391668 159.17025561 -164.22260631 149.18871044 -163 141 C-161.35041876 137.30706651 -159.22648362 135.37035891 -156 133 C-155.28585938 132.40316406 -154.57171875 131.80632812 -153.8359375 131.19140625 C-141.47090498 121.57645621 -126.4005332 118.66223494 -111.43457031 115.53515625 C-110.17612305 115.26316406 -108.91767578 114.99117188 -107.62109375 114.7109375 C-106.4911499 114.47681152 -105.36120605 114.24268555 -104.19702148 114.00146484 C-94.53188553 110.97386747 -87.98975225 102.28883315 -82.8125 94 C-76.03853392 84.07931741 -64.14924549 78.40848278 -53.97387695 72.53466797 C-48.59867135 69.41278882 -43.72923966 66.04666899 -39 62 C-37.97173584 61.14277113 -36.9430546 60.28604243 -35.9140625 59.4296875 C-28.64888405 53.33376171 -21.61201137 47.00947025 -14.7890625 40.42114258 C-11.81077547 37.55534745 -8.8942881 34.83495567 -5.5078125 32.45703125 C-0.13798061 28.66921081 -0.13798061 28.66921081 2.36865234 22.84179688 C2.61724517 17.46177052 2.00763829 12.27890503 1 7 C0.67 6.67 0.34 6.34 0 6 C-0.04080783 4.00041636 -0.04254356 1.99954746 0 0 Z M11 33 C11.56547328 39.4258327 12.68703142 45.31620326 14.5 51.5 C14.88986084 52.84263916 14.88986084 52.84263916 15.28759766 54.21240234 C19.87218832 69.62944583 25.43674563 84.75043581 31.85253906 99.49682617 C34.37036988 105.33655744 36.58535397 111.25838332 38.76489258 117.23193359 C51.37414899 151.58542379 70.16450437 182.39679806 90 213 C90.33 212.34 90.66 211.68 91 211 C90.09857254 208.43045387 90.09857254 208.43045387 88.66796875 205.46484375 C88.12640137 204.28519043 87.58483398 203.10553711 87.02685547 201.89013672 C86.72890076 201.25009705 86.43094604 200.61005737 86.1239624 199.95062256 C84.48842708 196.43469597 82.88070554 192.90604546 81.26953125 189.37890625 C80.75066345 188.24545776 80.75066345 188.24545776 80.22131348 187.08911133 C76.17341648 178.22793724 72.27608272 169.30151035 68.375 160.375 C61.96606049 145.72779803 55.50422946 131.10513041 49 116.5 C41.66989976 100.03942091 34.39263877 83.55657782 27.17382812 67.046875 C22.19247589 55.66308075 17.11953848 44.32230509 12 33 C11.67 33 11.34 33 11 33 Z M191 409 C193.8614607 411.8614607 196.51853384 414.29863444 199.6875 416.75 C200.47511719 417.36359375 201.26273437 417.9771875 202.07421875 418.609375 C203.73922232 420.09757175 203.73922232 420.09757175 205 420 C205 416.7 205 413.4 205 410 C198.07 409.505 198.07 409.505 191 409 Z M-12.140625 413.2109375 C-13.1955744 414.24712926 -14.23131227 415.30313858 -15.25 416.375 C-16.38417315 417.49607079 -17.52092917 418.61453411 -18.66015625 419.73046875 C-19.22105957 420.28782715 -19.78196289 420.84518555 -20.35986328 421.41943359 C-22.68500353 423.66012397 -25.16539093 425.67339021 -27.6875 427.6875 C-31.21843002 430.51938752 -34.60982759 433.43197082 -37.9375 436.5 C-41.27162408 439.5527283 -44.68109638 442.24484038 -48.37109375 444.8515625 C-55.6118077 450.24005242 -61.8649708 456.48084266 -68.18554688 462.90429688 C-70.14958868 464.89998487 -72.12456033 466.88434485 -74.1015625 468.8671875 C-75.36261302 470.13739186 -76.62305318 471.40820255 -77.8828125 472.6796875 C-78.46918488 473.27030975 -79.05555725 473.86093201 -79.65969849 474.4694519 C-82.03531555 476.88720127 -84.11415911 479.17123867 -86 482 C-89.37543847 481.43742692 -91.95883135 480.52058432 -95 479 C-95.99 479 -96.98 479 -98 479 C-99.9593426 484.53226146 -100.30237833 488.23232455 -99 494 C-96.86484733 497.92868092 -95.47610835 498.82542694 -91.25 500.375 C-87.03705063 501.19893475 -83.18268277 500.82294661 -79 500 C-77.65035156 499.74283203 -77.65035156 499.74283203 -76.2734375 499.48046875 C-73.84533868 499.00510856 -71.42218654 498.5046222 -69 498 C-71.475 493.545 -71.475 493.545 -74 489 C-73.24976562 488.5875 -72.49953125 488.175 -71.7265625 487.75 C-58.08636209 480.05376602 -47.9003043 470.90320221 -39.25 457.875 C-35.66807852 452.94857504 -30.51936199 449.85617928 -25.53515625 446.4921875 C-24.35412645 445.66522212 -23.1757373 444.83447285 -22 444 C-21.42032471 443.60756104 -20.84064941 443.21512207 -20.2434082 442.81079102 C-14.16719151 438.24918125 -11.3628845 431.87542037 -8.0625 425.1875 C-7.17981445 423.45209961 -7.17981445 423.45209961 -6.27929688 421.68164062 C-3.45460402 417.04469763 -3.45460402 417.04469763 -2 412 C-6.51339282 410.78660042 -8.23022869 410.45809632 -12.140625 413.2109375 Z M78 417 C77.66793489 426.29782307 77.07347781 443.15793707 83.5625 450.3125 C84.366875 451.199375 85.17125 452.08625 86 453 C88.59412455 452.62782367 89.72710993 452.31971303 91.45703125 450.29296875 C91.90433594 449.59816406 92.35164062 448.90335937 92.8125 448.1875 C94.83803848 445.30775716 96.42072268 443.48003841 99.5625 441.875 C103.56922999 439.68951091 105.29518342 437.6064221 108 434 C98.75034592 427.16692221 88.25854724 422.12927362 78 417 Z M148 426 C147.7215625 427.7325 147.7215625 427.7325 147.4375 429.5 C145.49669335 437.20893829 138.72204449 442.40630188 133.1875 447.75 C131.30523832 449.68604059 129.55160486 451.66427716 127.79296875 453.7109375 C123.16757332 459.0383468 118.10997496 463.90731473 113.05273438 468.8203125 C109.16759712 472.64653153 105.7056513 476.24547819 103 481 C103 481.66 103 482.32 103 483 C112.93845636 483.44062122 119.19363862 482.23233838 127.1640625 476.19140625 C129.16450417 474.89324729 131.05257916 474.18400815 133.3125 473.4375 C137.01902484 472.39879162 137.01902484 472.39879162 138.375 469.9375 C138.58125 469.298125 138.7875 468.65875 139 468 C139.66 467.34 140.32 466.68 141 466 C139.9790625 464.6078125 139.9790625 464.6078125 138.9375 463.1875 C137.9784375 461.6096875 137.9784375 461.6096875 137 460 C138 457 138 457 141.1875 455.125 C145.02337316 453.29345696 148.96406663 452.00969085 153 450.6875 C161.80491786 447.61426315 167.31845604 442.9976376 172 435 C167.81997547 432.27068986 163.5299168 430.52947751 158.875 428.8125 C158.15957031 428.53986328 157.44414062 428.26722656 156.70703125 427.98632812 C153.67688607 426.85639548 151.26021399 426 148 426 Z M191 459 C191.47627975 460.95903745 191.95611423 462.91721097 192.4375 464.875 C192.70433594 465.96554687 192.97117187 467.05609375 193.24609375 468.1796875 C193.8786478 470.92484721 193.8786478 470.92484721 195 473 C196.65 472.34 198.3 471.68 200 471 C200 466.38 200 461.76 200 457 C196.20442119 457 194.37097383 457.50178941 191 459 Z M183 462 C181.74896484 462.48919922 181.74896484 462.48919922 180.47265625 462.98828125 C174.02648124 465.49143512 167.58230971 467.88027314 161 470 C161.96432076 471.68756133 162.9731657 473.3497306 164 475 C164.495 475.845625 164.99 476.69125 165.5 477.5625 C168.71317076 480.69534149 171.8371035 481.45544493 176.05078125 482.828125 C180.10467147 484.43894231 183.28220767 486.85762118 186.76171875 489.44921875 C189.37759436 491.26161424 191.90703932 492.26745668 195 493 C193.11035511 486.2195095 190.84299057 479.61152779 188.4375 473 C188.13255615 472.15074951 187.8276123 471.30149902 187.51342773 470.42651367 C187.21895752 469.62576416 186.9244873 468.82501465 186.62109375 468 C186.22555298 466.9171875 186.22555298 466.9171875 185.82202148 465.8125 C185.03983983 463.80523162 185.03983983 463.80523162 183 462 Z " fill="#000000" transform="translate(196,0)"/>
</svg>
